<svg width="16" height="16" viewBox="0 0 16 16" fill="none" xmlns="http://www.w3.org/2000/svg">
    <path
        d="M4.4 9.3C5.50275 9.3 6.4 8.40275 6.4 7.3C6.4 6.19725 5.50275 5.3 4.4 5.3C3.29725 5.3 2.4 6.19725 2.4 7.3C2.4 8.40275 3.29725 9.3 4.4 9.3ZM13.2 6.1H7.6C7.379 6.1 7.2 6.279 7.2 6.5V10.1H1.6V4.9C1.6 4.679 1.421 4.5 1.2 4.5H0.4C0.179 4.5 0 4.679 0 4.9V13.7C0 13.921 0.179 14.1 0.4 14.1H1.2C1.421 14.1 1.6 13.921 1.6 13.7V12.5H14.4V13.7C14.4 13.921 14.579 14.1 14.8 14.1H15.6C15.821 14.1 16 13.921 16 13.7V8.9C16 7.3535 14.7465 6.1 13.2 6.1Z"
        fill="#2C2C2C" />
</svg>