<svg width="28" height="24" viewBox="0 0 28 24" fill="none" xmlns="http://www.w3.org/2000/svg">
    <g clip-path="url(#clip0_27_2964)">
        <path
            d="M13.7851 2.163C17.3259 2.163 17.7459 2.175 19.145 2.233C22.7389 2.381 24.4176 3.924 24.5811 7.152C24.6452 8.417 24.6574 8.797 24.6574 12.001C24.6574 15.206 24.6441 15.585 24.5811 16.85C24.4165 20.075 22.7422 21.621 19.145 21.769C17.7459 21.827 17.3281 21.839 13.7851 21.839C10.2442 21.839 9.82426 21.827 8.42626 21.769C4.82352 21.62 3.15366 20.07 2.9901 16.849C2.926 15.584 2.91274 15.205 2.91274 12C2.91274 8.796 2.92711 8.417 2.9901 7.151C3.15477 3.924 4.82905 2.38 8.42626 2.232C9.82537 2.175 10.2442 2.163 13.7851 2.163ZM13.7851 0C10.1834 0 9.73254 0.014 8.31796 0.072C3.50178 0.272 0.82514 2.69 0.604112 7.052C0.538909 8.333 0.523438 8.741 0.523438 12C0.523438 15.259 0.538909 15.668 0.603007 16.948C0.824034 21.306 3.49625 23.728 8.31686 23.928C9.73254 23.986 10.1834 24 13.7851 24C17.3867 24 17.8387 23.986 19.2533 23.928C24.065 23.728 26.7483 21.31 26.966 16.948C27.0312 15.668 27.0467 15.259 27.0467 12C27.0467 8.741 27.0312 8.333 26.9671 7.053C26.7505 2.699 24.075 0.273 19.2544 0.073C17.8387 0.014 17.3867 0 13.7851 0ZM13.7851 5.838C10.0243 5.838 6.97522 8.597 6.97522 12C6.97522 15.403 10.0243 18.163 13.7851 18.163C17.5458 18.163 20.5949 15.404 20.5949 12C20.5949 8.597 17.5458 5.838 13.7851 5.838ZM13.7851 16C11.3438 16 9.36452 14.21 9.36452 12C9.36452 9.791 11.3438 8 13.7851 8C16.2263 8 18.2056 9.791 18.2056 12C18.2056 14.21 16.2263 16 13.7851 16ZM20.8646 4.155C19.9849 4.155 19.2721 4.8 19.2721 5.595C19.2721 6.39 19.9849 7.035 20.8646 7.035C21.7432 7.035 22.4549 6.39 22.4549 5.595C22.4549 4.8 21.7432 4.155 20.8646 4.155Z"
            fill="#1E1E1E" />
    </g>
    <defs>
        <clipPath id="clip0_27_2964">
            <rect width="26.5233" height="24" fill="white" transform="translate(0.523438)" />
        </clipPath>
    </defs>
</svg>