<svg width="28" height="24" viewBox="0 0 28 24" fill="none" xmlns="http://www.w3.org/2000/svg">
    <g clip-path="url(#clip0_27_2968)">
        <path
            d="M21.5669 0H6.09502C3.04374 0 0.569336 2.239 0.569336 5V19C0.569336 21.761 3.04374 24 6.09502 24H21.5669C24.6193 24 27.0926 21.761 27.0926 19V5C27.0926 2.239 24.6193 0 21.5669 0ZM9.41042 19H6.09502V8H9.41042V19ZM7.75272 6.732C6.68516 6.732 5.81873 5.942 5.81873 4.968C5.81873 3.994 6.68516 3.204 7.75272 3.204C8.82028 3.204 9.68671 3.994 9.68671 4.968C9.68671 5.942 8.82139 6.732 7.75272 6.732ZM22.6721 19H19.3566V13.396C19.3566 10.028 14.9361 10.283 14.9361 13.396V19H11.6207V8H14.9361V9.765C16.4789 7.179 22.6721 6.988 22.6721 12.241V19Z"
            fill="#1E1E1E" />
    </g>
    <defs>
        <clipPath id="clip0_27_2968">
            <rect width="26.5233" height="24" fill="white" transform="translate(0.569336)" />
        </clipPath>
    </defs>
</svg>