<svg width="16" height="16" viewBox="0 0 16 16" fill="none" xmlns="http://www.w3.org/2000/svg">
    <path
        d="M15.25 8H2.5V3.5C2.5 2.94859 2.94859 2.5 3.5 2.5C3.85472 2.5 4.16663 2.68578 4.34422 2.965C3.82884 3.75272 3.88525 4.82675 4.55791 5.55984C4.42741 5.70712 4.43225 5.93222 4.57325 6.07322L4.92681 6.42678C5.07325 6.57322 5.31069 6.57322 5.45716 6.42678L8.42684 3.45712C8.57328 3.31069 8.57328 3.07325 8.42684 2.92678L8.07328 2.57322C7.93228 2.43222 7.70719 2.42741 7.55991 2.55787C6.999 2.04322 6.23822 1.88822 5.55434 2.07772C5.10253 1.42709 4.35038 1 3.5 1C2.1215 1 1 2.1215 1 3.5V8H0.75C0.335781 8 0 8.33578 0 8.75V9.25C0 9.66422 0.335781 10 0.75 10H1V11C1 11.8884 1.38631 12.6865 2 13.2358V14.25C2 14.6642 2.33578 15 2.75 15H3.25C3.66422 15 4 14.6642 4 14.25V14H12V14.25C12 14.6642 12.3358 15 12.75 15H13.25C13.6642 15 14 14.6642 14 14.25V13.2358C14.6137 12.6865 15 11.8884 15 11V10H15.25C15.6642 10 16 9.66422 16 9.25V8.75C16 8.33578 15.6642 8 15.25 8Z"
        fill="#2C2C2C" />
</svg>