<svg width="16" height="16" viewBox="0 0 16 16" fill="none" xmlns="http://www.w3.org/2000/svg">
    <path
        d="M4 7.2002V8.80019H12V7.2002C12 6.3177 12.7175 5.6002 13.6 5.6002H14.4C14.4 4.2752 13.325 3.2002 12 3.2002H4C2.675 3.2002 1.6 4.2752 1.6 5.6002H2.4C3.2825 5.6002 4 6.3177 4 7.2002ZM14.4 6.4002H13.6C13.1575 6.4002 12.8 6.7577 12.8 7.2002V9.60019H3.2V7.2002C3.2 6.7577 2.8425 6.4002 2.4 6.4002H1.6C0.7175 6.4002 0 7.1177 0 8.0002C0 8.5902 0.325 9.10019 0.8 9.3777V12.4002C0.8 12.6202 0.98 12.8002 1.2 12.8002H2.8C3.02 12.8002 3.2 12.6202 3.2 12.4002V12.0002H12.8V12.4002C12.8 12.6202 12.98 12.8002 13.2 12.8002H14.8C15.02 12.8002 15.2 12.6202 15.2 12.4002V9.3777C15.675 9.10019 16 8.5902 16 8.0002C16 7.1177 15.2825 6.4002 14.4 6.4002Z"
        fill="#2C2C2C" />
</svg>