<svg width="16" height="16" viewBox="0 0 16 16" fill="none" xmlns="http://www.w3.org/2000/svg">
    <path
        d="M15.6 11.9999H15.2C14.549 11.9999 14.055 11.7894 13.7977 11.5524C13.5752 11.3472 13.3063 11.1999 13.0035 11.1999H12.596C12.2933 11.1999 12.0243 11.3472 11.8018 11.5524C11.545 11.7894 11.051 11.9999 10.4 11.9999C9.749 11.9999 9.255 11.7894 8.99775 11.5524C8.77525 11.3472 8.50625 11.1999 8.2035 11.1999H7.796C7.49325 11.1999 7.22425 11.3472 7.00175 11.5524C6.745 11.7894 6.251 11.9999 5.6 11.9999C4.949 11.9999 4.455 11.7894 4.19775 11.5524C3.97525 11.3472 3.70625 11.1999 3.4035 11.1999H2.996C2.69325 11.1999 2.42425 11.3472 2.20175 11.5524C1.945 11.7894 1.451 11.9999 0.8 11.9999H0.4C0.179 11.9999 0 12.1789 0 12.3999V13.1999C0 13.4209 0.179 13.5999 0.4 13.5999H0.8C1.7655 13.5999 2.618 13.2952 3.2 12.8039C3.782 13.2954 4.6345 13.5999 5.6 13.5999C6.5655 13.5999 7.418 13.2952 8 12.8039C8.582 13.2954 9.4345 13.5999 10.4 13.5999C11.3655 13.5999 12.218 13.2952 12.8 12.8039C13.382 13.2954 14.2345 13.5999 15.2 13.5999H15.6C15.821 13.5999 16 13.4209 16 13.1999V12.3999C16 12.1789 15.821 11.9999 15.6 11.9999ZM5.6 11.1999V8.7999H10.4V11.1999C10.878 11.1999 11.1715 11.0459 11.2598 10.9644C11.489 10.7529 11.7397 10.6059 12 10.5127V4.7999C12 4.3589 12.359 3.9999 12.8 3.9999C13.241 3.9999 13.6 4.3589 13.6 4.7999V5.1999C13.6 5.4209 13.779 5.5999 14 5.5999H14.8C15.021 5.5999 15.2 5.4209 15.2 5.1999V4.7999C15.2 3.4764 14.1235 2.3999 12.8 2.3999C11.4765 2.3999 10.4 3.4764 10.4 4.7999V7.1999H5.6V4.7999C5.6 4.3589 5.959 3.9999 6.4 3.9999C6.841 3.9999 7.2 4.3589 7.2 4.7999V5.1999C7.2 5.4209 7.379 5.5999 7.6 5.5999H8.4C8.621 5.5999 8.8 5.4209 8.8 5.1999V4.7999C8.8 3.4764 7.7235 2.3999 6.4 2.3999C5.0765 2.3999 4 3.4764 4 4.7999V10.5124C4.26025 10.6057 4.511 10.7529 4.74025 10.9642C4.8285 11.0459 5.122 11.1999 5.6 11.1999Z"
        fill="#2C2C2C" />
</svg>